<?xml version="1.0" encoding="UTF-8" standalone="no"?>
<svg
   version="1.0"
   width="200pt"
   height="330pt"
   viewBox="0 0 200 330"
   preserveAspectRatio="xMidYMid meet"
   id="svg1377"
   sodipodi:docname="fig_logo_name_below.svg"
   inkscape:export-filename="/Users/michaelbrowne/Documents/Projects.nosync/fig/resources/image/fig_logo_name_below_orange_500x820.png"
   inkscape:export-xdpi="181.18515"
   inkscape:export-ydpi="181.18515"
   inkscape:version="1.1.1 (c3084ef, 2021-09-22)"
   xmlns:inkscape="http://www.inkscape.org/namespaces/inkscape"
   xmlns:sodipodi="http://sodipodi.sourceforge.net/DTD/sodipodi-0.dtd"
   xmlns="http://www.w3.org/2000/svg"
   xmlns:svg="http://www.w3.org/2000/svg">
  <defs
     id="defs1381">
    <rect
       x="55.092186"
       y="397.58194"
       width="0.91820312"
       height="43.155544"
       id="rect5282" />
  </defs>
  <sodipodi:namedview
     id="namedview1379"
     pagecolor="#3a474d"
     bordercolor="#666666"
     borderopacity="1.0"
     inkscape:pageshadow="2"
     inkscape:pageopacity="0"
     inkscape:pagecheckerboard="false"
     inkscape:document-units="pt"
     showgrid="false"
     inkscape:zoom="0.98065306"
     inkscape:cx="109.11096"
     inkscape:cy="258.50121"
     inkscape:window-width="1296"
     inkscape:window-height="847"
     inkscape:window-x="0"
     inkscape:window-y="25"
     inkscape:window-maximized="0"
     inkscape:current-layer="g1375"
     height="350pt" />
  <g
     transform="matrix(0.1,0,0,-0.1,0,200)"
     fill="#000000"
     stroke="none"
     id="g1375">
    <path
       d="m 940,1989 c -133,-53 -132,-247 3,-298 28,-11 28,-11 25,-93 l -3,-81 -63,-13 c -73,-15 -157,-51 -208,-90 l -35,-27 -61,60 c -55,55 -59,62 -48,83 18,33 14,106 -7,143 -44,74 -148,101 -221,57 -100,-61 -97,-213 5,-273 37,-21 110,-25 143,-7 21,11 28,7 83,-48 l 60,-61 -27,-35 c -39,-51 -75,-135 -90,-208 l -13,-63 -81,-3 c -82,-3 -82,-3 -93,25 -23,63 -83,103 -152,103 -117,0 -193,-133 -135,-235 25,-43 93,-85 138,-85 47,0 113,42 138,88 l 23,42 h 83 83 l 7,-51 c 9,-65 38,-140 81,-203 l 34,-51 -59,-59 c -55,-56 -60,-59 -85,-48 -64,29 -162,-5 -197,-68 -25,-45 -21,-134 7,-173 24,-32 91,-67 130,-67 44,0 112,38 135,74 22,36 28,123 11,155 -8,14 1,29 50,77 51,51 62,57 77,46 83,-59 159,-91 255,-107 l 37,-6 V 410 -30 l -39,-20 c -54,-27 -84,-72 -88,-134 -8,-95 56,-166 149,-166 113,0 187,93 158,199 -11,40 -61,94 -99,106 -19,6 -21,374 -21,450 v 84 l 38,6 c 66,11 155,46 214,85 l 56,37 57,-57 56,-56 -12,-45 c -17,-65 -5,-116 40,-160 65,-66 155,-65 221,1 66,66 67,156 1,221 -44,45 -95,57 -160,40 l -45,-12 -56,56 -57,57 37,56 c 39,59 74,148 85,215 l 6,37 h 84 c 76,0 84,-2 90,-21 12,-38 66,-88 106,-99 106,-29 199,45 199,158 0,93 -71,157 -166,149 -62,-4 -107,-34 -134,-88 l -20,-39 h -80 -79 l -6,38 c -16,95 -48,171 -107,254 -11,15 -5,26 46,77 51,52 62,58 79,49 34,-18 113,-12 151,11 38,24 76,91 76,136 0,39 -35,106 -67,130 -39,28 -128,32 -173,7 -63,-35 -97,-133 -68,-197 11,-25 8,-30 -49,-87 l -61,-61 -31,26 c -45,38 -130,75 -205,89 l -66,13 v 82 82 l 43,23 c 45,25 87,91 87,138 0,14 -10,46 -22,70 -37,73 -125,108 -198,79 z m 95,-63 c 18,-8 38,-23 44,-34 16,-29 14,-84 -4,-109 -20,-29 -75,-46 -107,-34 -35,13 -68,58 -68,91 0,42 50,96 93,99 4,1 23,-5 42,-13 z M 471,1661 c 21,-22 29,-39 29,-66 0,-27 -8,-44 -29,-66 -22,-21 -39,-29 -66,-29 -51,0 -95,44 -95,95 0,27 8,44 29,66 41,40 91,40 132,0 z m 1163,18 c 49,-22 66,-96 33,-140 -68,-90 -210,-7 -162,94 24,52 76,70 129,46 z m -529,-243 c 177,-47 309,-193 334,-370 41,-292 -213,-546 -505,-505 -262,37 -435,298 -369,554 61,234 311,383 540,321 z M 214,1079 c 38,-30 49,-64 36,-105 -14,-43 -44,-64 -90,-64 -20,0 -45,7 -57,15 -29,20 -46,75 -34,107 13,35 58,68 91,68 15,0 39,-10 54,-21 z m 1666,6 c 59,-30 68,-98 21,-146 -76,-76 -202,16 -151,111 12,23 57,49 83,50 10,0 31,-7 47,-15 z M 439,499 c 68,-24 81,-122 22,-166 -60,-45 -151,2 -151,77 0,35 24,73 55,86 37,16 35,16 74,3 z m 1209,-12 c 8,-6 21,-27 29,-44 11,-28 11,-38 -2,-68 -32,-77 -138,-78 -170,-1 -37,87 71,173 143,113 z m -587,-616 c 21,-22 29,-39 29,-66 0,-73 -88,-121 -146,-80 -28,19 -48,69 -40,101 19,74 103,98 157,45 z"
       id="path1371"
       style="fill:#ff6600;fill-opacity:1"
       sodipodi:nodetypes="ccccccccccccccccccccscscccccccccscsccccccccccscssccccccccsccccccccsscsccccccccscscscscccccccsccccccscccscsscccccccccccccsccsccccccccsccccccccsccc" />
    <path
       d="m 886,1304 c -57,-20 -66,-31 -66,-80 v -44 h -49 -49 l -21,-49 c -11,-27 -21,-53 -21,-57 0,-5 14,-23 32,-41 l 32,-33 -32,-33 c -18,-18 -32,-36 -32,-41 0,-4 10,-30 21,-57 l 21,-49 h 49 49 v -44 c 0,-49 9,-59 67,-80 40,-14 41,-14 69,15 35,36 43,36 78,0 28,-29 29,-29 69,-15 58,21 67,31 67,80 v 44 h 49 49 l 21,49 c 11,27 21,53 21,57 0,5 -14,23 -32,41 l -32,33 32,33 c 18,18 32,36 32,41 0,4 -10,30 -21,57 l -21,49 h -49 -49 v 44 c 0,49 -9,59 -67,80 -40,14 -41,14 -69,-15 -34,-36 -41,-36 -79,0 -29,28 -31,28 -69,15 z m 172,-183 c 46,-24 72,-67 72,-121 0,-54 -26,-97 -72,-121 -45,-23 -79,-24 -124,-3 -98,47 -99,194 -2,246 43,23 80,22 126,-1 z"
       id="path1373"
       style="fill:#ff6600;fill-opacity:1" />
    <g
       aria-label="Fig"
       transform="matrix(1.0366247,0,0,-0.96466928,-15,0)"
       id="text2955"
       style="font-size:1199.67px;line-height:1.25;font-family:Copperplate;-inkscape-font-specification:Copperplate;fill:#ff6600;stroke-width:8.99756">
      <path
         d="M 428.51477,1059.5558 V 744.04256 H 699.6402 V 592.88414 H 428.51477 V 369.74551 H 744.028 V 218.58709 H 246.16493 v 840.96871 z"
         style="font-weight:bold;font-family:'Kohinoor Devanagari';-inkscape-font-specification:'Kohinoor Devanagari Bold';fill:#ff6600"
         id="path16111" />
      <path
         d="M 877.37882,1059.5558 H 1058.529 V 381.74221 H 877.37882 Z"
         style="font-weight:bold;font-family:'Kohinoor Devanagari';-inkscape-font-specification:'Kohinoor Devanagari Bold';fill:#ff6600"
         id="path16113"
         sodipodi:nodetypes="ccccc" />
      <path
         d="m 1772.2389,414.1333 c -59.9835,-26.39274 -133.1634,-40.78878 -251.9307,-40.78878 -221.939,0 -329.9093,154.75744 -329.9093,345.50497 0,243.53302 125.9654,313.11391 266.3268,313.11391 61.1832,0 107.9703,-15.5957 133.1634,-38.38947 h 4.7986 v 34.79047 c 0,95.9736 -39.5891,130.764 -133.1633,130.764 -70.7806,0 -136.7624,-32.3911 -170.3532,-79.1782 l -101.9719,133.1634 c 38.3894,45.5874 105.5709,92.3745 272.3251,92.3745 181.1501,0 310.7145,-91.1749 310.7145,-275.9241 z M 1593.4881,528.10196 V 850.8132 c -22.7938,22.79373 -55.1848,34.79043 -94.774,34.79043 -80.3779,0 -128.3647,-34.79043 -128.3647,-173.95216 0,-129.56436 53.9852,-195.54621 148.7591,-195.54621 28.7921,0 49.1865,3.59901 74.3796,11.9967 z"
         style="font-weight:bold;font-family:'Kohinoor Devanagari';-inkscape-font-specification:'Kohinoor Devanagari Bold';fill:#ff6600"
         id="path16115" />
    </g>
    <text
       xml:space="preserve"
       transform="matrix(7.5,0,0,-7.5,0,2000)"
       id="text5280"
       style="font-style:normal;font-weight:normal;font-size:40px;line-height:1.25;font-family:sans-serif;white-space:pre;shape-inside:url(#rect5282);fill:#000000;fill-opacity:1;stroke:none" />
  </g>
</svg>
