<?xml version="1.0" encoding="UTF-8" standalone="no"?>
<svg
   version="1.0"
   width="200.000000pt"
   height="200.000000pt"
   viewBox="0 0 200.000000 200.000000"
   preserveAspectRatio="xMidYMid meet"
   id="svg1377"
   sodipodi:docname="fig_logo_only.svg"
   inkscape:export-filename="/Users/michaelbrowne/Documents/Projects.nosync/fig/resources/image/fig_logo_only_500x500.png"
   inkscape:export-xdpi="180.97902"
   inkscape:export-ydpi="180.97902"
   inkscape:version="1.1.1 (c3084ef, 2021-09-22)"
   xmlns:inkscape="http://www.inkscape.org/namespaces/inkscape"
   xmlns:sodipodi="http://sodipodi.sourceforge.net/DTD/sodipodi-0.dtd"
   xmlns="http://www.w3.org/2000/svg"
   xmlns:svg="http://www.w3.org/2000/svg">
  <defs
     id="defs1381" />
  <sodipodi:namedview
     id="namedview1379"
     pagecolor="#3a474d"
     bordercolor="#666666"
     borderopacity="1.0"
     inkscape:pageshadow="2"
     inkscape:pageopacity="0"
     inkscape:pagecheckerboard="0"
     inkscape:document-units="pt"
     showgrid="false"
     inkscape:zoom="1.9575"
     inkscape:cx="79.182631"
     inkscape:cy="133.07791"
     inkscape:window-width="1296"
     inkscape:window-height="847"
     inkscape:window-x="0"
     inkscape:window-y="25"
     inkscape:window-maximized="0"
     inkscape:current-layer="g1375" />
  <g
     transform="translate(0.000000,200.000000) scale(0.100000,-0.100000)"
     fill="#000000"
     stroke="none"
     id="g1375">
    <path
       d="M940 1989 c-133 -53 -132 -247 3 -298 28 -11 28 -11 25 -93 l-3 -81 -63 -13 c-73 -15 -157 -51 -208 -90 l-35 -27 -61 60 c-55 55 -59 62 -48 83 18 33 14 106 -7 143 -44 74 -148 101 -221 57 -100 -61 -97 -213 5 -273 37 -21 110 -25 143 -7 21 11 28 7 83 -48 l60 -61 -27 -35 c-39 -51 -75 -135 -90 -208 l-13 -63 -81 -3 c-82 -3 -82 -3 -93 25 -23 63 -83 103 -152 103 -117 0 -193 -133 -135 -235 25 -43 93 -85 138 -85 47 0 113 42 138 88 l23 42 83 0 83 0 7 -51 c9 -65 38 -140 81 -203 l34 -51 -59 -59 c-55 -56 -60 -59 -85 -48 -64 29 -162 -5 -197 -68 -25 -45 -21 -134 7 -173 24 -32 91 -67 130 -67 44 0 112 38 135 74 22 36 28 123 11 155 -8 14 1 29 50 77 51 51 62 57 77 46 83 -59 159 -91 255 -107 l37 -6 0 -79 0 -80 -39 -20 c-54 -27 -84 -72 -88 -134 -8 -95 56 -166 149 -166 113 0 187 93 158 199 -11 40 -61 94 -99 106 -19 6 -21 14 -21 90 l0 84 38 6 c66 11 155 46 214 85 l56 37 57 -57 56 -56 -12 -45 c-17 -65 -5 -116 40 -160 65 -66 155 -65 221 1 66 66 67 156 1 221 -44 45 -95 57 -160 40 l-45 -12 -56 56 -57 57 37 56 c39 59 74 148 85 215 l6 37 84 0 c76 0 84 -2 90 -21 12 -38 66 -88 106 -99 106 -29 199 45 199 158 0 93 -71 157 -166 149 -62 -4 -107 -34 -134 -88 l-20 -39 -80 0 -79 0 -6 38 c-16 95 -48 171 -107 254 -11 15 -5 26 46 77 51 52 62 58 79 49 34 -18 113 -12 151 11 38 24 76 91 76 136 0 39 -35 106 -67 130 -39 28 -128 32 -173 7 -63 -35 -97 -133 -68 -197 11 -25 8 -30 -49 -87 l-61 -61 -31 26 c-45 38 -130 75 -205 89 l-66 13 0 82 0 82 43 23 c45 25 87 91 87 138 0 14 -10 46 -22 70 -37 73 -125 108 -198 79z m95 -63 c18 -8 38 -23 44 -34 16 -29 14 -84 -4 -109 -20 -29 -75 -46 -107 -34 -35 13 -68 58 -68 91 0 42 50 96 93 99 4 1 23 -5 42 -13z m-564 -265 c21 -22 29 -39 29 -66 0 -27 -8 -44 -29 -66 -22 -21 -39 -29 -66 -29 -51 0 -95 44 -95 95 0 27 8 44 29 66 41 40 91 40 132 0z m1163 18 c49 -22 66 -96 33 -140 -68 -90 -210 -7 -162 94 24 52 76 70 129 46z m-529 -243 c177 -47 309 -193 334 -370 41 -292 -213 -546 -505 -505 -262 37 -435 298 -369 554 61 234 311 383 540 321z m-891 -357 c38 -30 49 -64 36 -105 -14 -43 -44 -64 -90 -64 -20 0 -45 7 -57 15 -29 20 -46 75 -34 107 13 35 58 68 91 68 15 0 39 -10 54 -21z m1666 6 c59 -30 68 -98 21 -146 -76 -76 -202 16 -151 111 12 23 57 49 83 50 10 0 31 -7 47 -15z m-1441 -586 c68 -24 81 -122 22 -166 -60 -45 -151 2 -151 77 0 35 24 73 55 86 37 16 35 16 74 3z m1209 -12 c8 -6 21 -27 29 -44 11 -28 11 -38 -2 -68 -32 -77 -138 -78 -170 -1 -37 87 71 173 143 113z m-587 -256 c21 -22 29 -39 29 -66 0 -73 -88 -121 -146 -80 -28 19 -48 69 -40 101 19 74 103 98 157 45z"
       id="path1371"
       style="fill-opacity:1;fill:#ff6600" />
    <path
       d="M886 1304 c-57 -20 -66 -31 -66 -80 l0 -44 -49 0 -49 0 -21 -49 c-11 -27 -21 -53 -21 -57 0 -5 14 -23 32 -41 l32 -33 -32 -33 c-18 -18 -32 -36 -32 -41 0 -4 10 -30 21 -57 l21 -49 49 0 49 0 0 -44 c0 -49 9 -59 67 -80 40 -14 41 -14 69 15 35 36 43 36 78 0 28 -29 29 -29 69 -15 58 21 67 31 67 80 l0 44 49 0 49 0 21 49 c11 27 21 53 21 57 0 5 -14 23 -32 41 l-32 33 32 33 c18 18 32 36 32 41 0 4 -10 30 -21 57 l-21 49 -49 0 -49 0 0 44 c0 49 -9 59 -67 80 -40 14 -41 14 -69 -15 -34 -36 -41 -36 -79 0 -29 28 -31 28 -69 15z m172 -183 c46 -24 72 -67 72 -121 0 -54 -26 -97 -72 -121 -45 -23 -79 -24 -124 -3 -98 47 -99 194 -2 246 43 23 80 22 126 -1z"
       id="path1373"
       style="fill-opacity:1;fill:#ff6600" />
  </g>
</svg>
